{
    "asset": {
        "generator": "COLLADA2GLTF",
        "version": "2.0"
    },
    "scenes": [
        {
            "nodes": [
                0
            ]
        }
    ],
    "scene": 0,
    "nodes": [
        {
            "children": [
                1
            ],
            "name": "Y_UP"
        },
        {
            "mesh": 0,
            "children": [
                4,
                2
            ],
            "name": "Cesium_Air"
        },
        {
            "children": [
                3
            ],
            "matrix": [
                1.0,
                0.0,
                0.0,
                0.0,
                0.0,
                1.0,
                0.0,
                0.0,
                0.0,
                0.0,
                1.0,
                0.0,
                1.9191499948501588,
                0.6840609908103943,
                -3.409319877624512,
                1.0
            ]
        },
        {
            "mesh": 1,
            "rotation": [
                -0.0,
                -0.0,
                -0.0,
                -1.0
            ],
            "name": "Prop__2_"
        },
        {
            "children": [
                5
            ],
            "matrix": [
                1.0,
                0.0,
                0.0,
                0.0,
                0.0,
                1.0,
                0.0,
                0.0,
                0.0,
                0.0,
                1.0,
                0.0,
                1.9191499948501588,
                0.6840609908103943,
                3.409319877624512,
                1.0
            ]
        },
        {
            "mesh": 1,
            "rotation": [
                -0.0,
                -0.0,
                -0.0,
                -1.0
            ],
            "name": "Prop"
        }
    ],
    "meshes": [
        {
            "primitives": [
                {
                    "attributes": {
                        "NORMAL": 1,
                        "POSITION": 2,
                        "TEXCOORD_0": 3
                    },
                    "indices": 0,
                    "mode": 4,
                    "material": 0
                }
            ],
            "name": "Cesium_Air"
        },
        {
            "primitives": [
                {
                    "attributes": {
                        "NORMAL": 5,
                        "POSITION": 6,
                        "TEXCOORD_0": 7
                    },
                    "indices": 4,
                    "mode": 4,
                    "material": 1
                },
                {
                    "attributes": {
                        "NORMAL": 9,
                        "POSITION": 10,
                        "TEXCOORD_0": 11
                    },
                    "indices": 8,
                    "mode": 4,
                    "material": 2
                }
            ],
            "name": "Prop"
        }
    ],
    "animations": [
        {
            "channels": [
                {
                    "sampler": 0,
                    "target": {
                        "node": 5,
                        "path": "rotation"
                    }
                },
                {
                    "sampler": 1,
                    "target": {
                        "node": 3,
                        "path": "rotation"
                    }
                }
            ],
            "samplers": [
                {
                    "input": 12,
                    "interpolation": "LINEAR",
                    "output": 13
                },
                {
                    "input": 14,
                    "interpolation": "LINEAR",
                    "output": 15
                }
            ]
        }
    ],
    "accessors": [
        {
            "bufferView": 0,
            "byteOffset": 0,
            "componentType": 5123,
            "count": 17088,
            "max": [
                4179
            ],
            "min": [
                0
            ],
            "type": "SCALAR"
        },
        {
            "bufferView": 1,
            "byteOffset": 0,
            "componentType": 5126,
            "count": 4180,
            "max": [
                0.9999970197677612,
                0.9999930262565612,
                1.0
            ],
            "min": [
                -0.9999970197677612,
                -0.9999989867210388,
                -1.0
            ],
            "type": "VEC3"
        },
        {
            "bufferView": 1,
            "byteOffset": 50160,
            "componentType": 5126,
            "count": 4180,
            "max": [
                8.00469970703125,
                5.464059829711914,
                12.86829948425293
            ],
            "min": [
                -13.396899223327637,
                -2.2960000038146979,
                -12.86829948425293
            ],
            "type": "VEC3"
        },
        {
            "bufferView": 2,
            "byteOffset": 0,
            "componentType": 5126,
            "count": 4180,
            "max": [
                0.9526770114898682,
                0.975000023841858
            ],
            "min": [
                0.02500000037252903,
                0.02499997615814209
            ],
            "type": "VEC2"
        },
        {
            "bufferView": 0,
            "byteOffset": 34176,
            "componentType": 5123,
            "count": 360,
            "max": [
                77
            ],
            "min": [
                0
            ],
            "type": "SCALAR"
        },
        {
            "bufferView": 1,
            "byteOffset": 100320,
            "componentType": 5126,
            "count": 78,
            "max": [
                0.9999610185623168,
                0.9863799810409546,
                0.989445984363556
            ],
            "min": [
                0.1364929974079132,
                -0.9841089844703674,
                -0.9894229769706726
            ],
            "type": "VEC3"
        },
        {
            "bufferView": 1,
            "byteOffset": 101256,
            "componentType": 5126,
            "count": 78,
            "max": [
                0.5895140171051025,
                0.25182101130485537,
                0.25182101130485537
            ],
            "min": [
                -0.000022888199964654633,
                -0.25182101130485537,
                -0.25182101130485537
            ],
            "type": "VEC3"
        },
        {
            "bufferView": 2,
            "byteOffset": 33440,
            "componentType": 5126,
            "count": 78,
            "max": [
                0.5661399960517883,
                0.585023045539856
            ],
            "min": [
                0.5124710202217102,
                0.5582680106163025
            ],
            "type": "VEC2"
        },
        {
            "bufferView": 0,
            "byteOffset": 34896,
            "componentType": 5123,
            "count": 72,
            "max": [
                24
            ],
            "min": [
                0
            ],
            "type": "SCALAR"
        },
        {
            "bufferView": 1,
            "byteOffset": 102192,
            "componentType": 5126,
            "count": 25,
            "max": [
                1.0,
                0.0,
                0.0
            ],
            "min": [
                1.0,
                0.0,
                0.0
            ],
            "type": "VEC3"
        },
        {
            "bufferView": 1,
            "byteOffset": 102492,
            "componentType": 5126,
            "count": 25,
            "max": [
                0.08199869841337204,
                1.5962599515914918,
                1.5962499380111697
            ],
            "min": [
                0.08199869841337204,
                -1.596229910850525,
                -1.5962499380111697
            ],
            "type": "VEC3"
        },
        {
            "bufferView": 2,
            "byteOffset": 34064,
            "componentType": 5126,
            "count": 25,
            "max": [
                0.8944259881973267,
                0.8944259881973267
            ],
            "min": [
                0.10557399690151216,
                0.10557401180267334
            ],
            "type": "VEC2"
        },
        {
            "bufferView": 3,
            "byteOffset": 0,
            "componentType": 5126,
            "count": 8,
            "max": [
                1.25
            ],
            "min": [
                0.0
            ],
            "type": "SCALAR"
        },
        {
            "bufferView": 4,
            "byteOffset": 0,
            "componentType": 5126,
            "count": 8,
            "max": [
                0.9987167119979858,
                0.0,
                0.0,
                0.9948692321777344
            ],
            "min": [
                -0.0,
                0.0,
                0.0,
                -1.0
            ],
            "type": "VEC4"
        },
        {
            "bufferView": 3,
            "byteOffset": 32,
            "componentType": 5126,
            "count": 8,
            "max": [
                1.25
            ],
            "min": [
                0.0
            ],
            "type": "SCALAR"
        },
        {
            "bufferView": 4,
            "byteOffset": 128,
            "componentType": 5126,
            "count": 8,
            "max": [
                0.9987167119979858,
                0.0,
                0.0,
                0.9948692321777344
            ],
            "min": [
                -0.0,
                0.0,
                0.0,
                -1.0
            ],
            "type": "VEC4"
        }
    ],
    "materials": [
        {
            "pbrMetallicRoughness": {
                "baseColorTexture": {
                    "index": 0
                },
                "metallicFactor": 0.0
            },
            "name": "cesium_air"
        },
        {
            "pbrMetallicRoughness": {
                "baseColorTexture": {
                    "index": 0
                },
                "metallicFactor": 0.0
            },
            "name": "cesium_air"
        },
        {
            "pbrMetallicRoughness": {
                "baseColorTexture": {
                    "index": 1
                },
                "metallicFactor": 0.0
            },
            "name": "prop"
        }
    ],
    "textures": [
        {
            "sampler": 0,
            "source": 0
        },
        {
            "sampler": 0,
            "source": 1
        }
    ],
    "images": [
        {
            "uri": "0_Cesium_Air.png"
        },
        {
            "uri": "1_Cesium_Air_Prop.png"
        }
    ],
    "samplers": [
        {
            "magFilter": 9729,
            "minFilter": 9986,
            "wrapS": 10497,
            "wrapT": 10497
        }
    ],
    "bufferViews": [
        {
            "buffer": 0,
            "byteOffset": 137376,
            "byteLength": 35040,
            "target": 34963
        },
        {
            "buffer": 0,
            "byteOffset": 256,
            "byteLength": 102792,
            "byteStride": 12,
            "target": 34962
        },
        {
            "buffer": 0,
            "byteOffset": 103048,
            "byteLength": 34264,
            "byteStride": 8,
            "target": 34962
        },
        {
            "buffer": 0,
            "byteOffset": 137312,
            "byteLength": 64
        },
        {
            "buffer": 0,
            "byteOffset": 0,
            "byteLength": 256
        }
    ],
    "buffers": [
        {
            "byteLength": 172416,
            "uri": "data:application/octet-stream;base64,"
        }
    ]
}
