{
    "asset": {
        "generator": "COLLADA2GLTF",
        "version": "2.0"
    },
    "scenes": [
        {
            "nodes": [
                0
            ]
        }
    ],
    "scene": 0,
    "nodes": [
        {
            "children": [
                9,
                8,
                7,
                6,
                4,
                3,
                2,
                1
            ],
            "matrix": [
                1.0,
                0.0,
                0.0,
                0.0,
                0.0,
                0.0,
                -1.0,
                0.0,
                0.0,
                1.0,
                0.0,
                0.0,
                0.0,
                0.0,
                0.0,
                1.0
            ],
            "name": "Z_UP"
        },
        {
            "mesh": 0,
            "matrix": [
                1.0,
                0.0,
                0.0,
                0.0,
                0.0,
                1.0,
                0.0,
                0.0,
                0.0,
                0.0,
                1.0,
                0.0,
                0.006681961473077536,
                -0.04597537219524384,
                0.0,
                1.0
            ],
            "name": "Torus001"
        },
        {
            "mesh": 1,
            "matrix": [
                1.0,
                0.0,
                0.0,
                0.0,
                0.0,
                1.0,
                0.0,
                0.0,
                0.0,
                0.0,
                1.0,
                0.0,
                -0.04459492117166519,
                -0.025430530309677125,
                0.0,
                1.0
            ],
            "name": "GeoSphere001"
        },
        {
            "mesh": 2,
            "matrix": [
                1.0,
                0.0,
                0.0,
                0.0,
                0.0,
                1.0,
                0.0,
                0.0,
                0.0,
                0.0,
                1.0,
                0.0,
                0.03747089207172394,
                -0.04209950193762779,
                0.000005000000783184078,
                1.0
            ],
            "name": "Pyramid001"
        },
        {
            "children": [
                5
            ],
            "matrix": [
                1.0,
                0.0,
                0.0,
                0.0,
                0.0,
                1.0,
                0.0,
                0.0,
                0.0,
                0.0,
                1.0,
                0.0,
                -0.0570114441215992,
                0.03496352210640907,
                0.016577331349253656,
                1.0
            ],
            "name": "Tube001"
        },
        {
            "mesh": 3,
            "matrix": [
                1.0,
                0.0,
                0.0,
                0.0,
                0.0,
                1.0,
                0.0,
                0.0,
                0.0,
                0.0,
                1.0,
                0.0,
                0.0,
                0.0,
                -0.016577331349253656,
                1.0
            ]
        },
        {
            "mesh": 4,
            "matrix": [
                1.0,
                0.0,
                0.0,
                0.0,
                0.0,
                1.0,
                0.0,
                0.0,
                0.0,
                0.0,
                1.0,
                0.0,
                0.0017211911035701633,
                -0.025012219324707986,
                0.0,
                1.0
            ],
            "name": "Cylinder001"
        },
        {
            "mesh": 5,
            "matrix": [
                1.0,
                0.0,
                0.0,
                0.0,
                0.0,
                1.0,
                0.0,
                0.0,
                0.0,
                0.0,
                1.0,
                0.0,
                0.05857314169406891,
                0.03403131291270256,
                0.0,
                1.0
            ],
            "name": "Sphere001"
        },
        {
            "mesh": 6,
            "matrix": [
                1.0,
                0.0,
                0.0,
                0.0,
                0.0,
                1.0,
                0.0,
                0.0,
                0.0,
                0.0,
                1.0,
                0.0,
                -0.013341969810426236,
                0.004261139314621687,
                0.0,
                1.0
            ],
            "name": "Box002"
        },
        {
            "mesh": 7,
            "matrix": [
                1.0,
                0.0,
                0.0,
                0.0,
                0.0,
                1.0,
                0.0,
                0.0,
                0.0,
                0.0,
                1.0,
                0.0,
                -0.01664891093969345,
                0.025887589901685716,
                0.0,
                1.0
            ],
            "name": "Box001"
        }
    ],
    "meshes": [
        {
            "primitives": [
                {
                    "attributes": {
                        "NORMAL": 1,
                        "POSITION": 2
                    },
                    "indices": 0,
                    "mode": 4,
                    "material": 0
                }
            ],
            "name": "Torus001"
        },
        {
            "primitives": [
                {
                    "attributes": {
                        "NORMAL": 4,
                        "POSITION": 5
                    },
                    "indices": 3,
                    "mode": 4,
                    "material": 1
                }
            ],
            "name": "GeoSphere001"
        },
        {
            "primitives": [
                {
                    "attributes": {
                        "NORMAL": 7,
                        "POSITION": 8
                    },
                    "indices": 6,
                    "mode": 4,
                    "material": 2
                }
            ],
            "name": "Pyramid001"
        },
        {
            "primitives": [
                {
                    "attributes": {
                        "NORMAL": 10,
                        "POSITION": 11
                    },
                    "indices": 9,
                    "mode": 4,
                    "material": 3
                }
            ],
            "name": "Tube001"
        },
        {
            "primitives": [
                {
                    "attributes": {
                        "NORMAL": 13,
                        "POSITION": 14
                    },
                    "indices": 12,
                    "mode": 4,
                    "material": 4
                }
            ],
            "name": "Cylinder001"
        },
        {
            "primitives": [
                {
                    "attributes": {
                        "NORMAL": 16,
                        "POSITION": 17
                    },
                    "indices": 15,
                    "mode": 4,
                    "material": 5
                }
            ],
            "name": "Sphere001"
        },
        {
            "primitives": [
                {
                    "attributes": {
                        "NORMAL": 19,
                        "POSITION": 20
                    },
                    "indices": 18,
                    "mode": 4,
                    "material": 6
                }
            ],
            "name": "Box002"
        },
        {
            "primitives": [
                {
                    "attributes": {
                        "NORMAL": 22,
                        "POSITION": 23
                    },
                    "indices": 21,
                    "mode": 4,
                    "material": 7
                }
            ],
            "name": "Box001"
        }
    ],
    "accessors": [
        {
            "bufferView": 0,
            "byteOffset": 0,
            "componentType": 5123,
            "count": 31284,
            "max": [
                5332
            ],
            "min": [
                0
            ],
            "type": "SCALAR"
        },
        {
            "bufferView": 1,
            "byteOffset": 0,
            "componentType": 5126,
            "count": 5333,
            "max": [
                0.998867392539978,
                0.9999999403953552,
                0.9998255968093872
            ],
            "min": [
                -0.9988675117492676,
                -0.9999999403953552,
                -0.9998257160186768
            ],
            "type": "VEC3"
        },
        {
            "bufferView": 1,
            "byteOffset": 63996,
            "componentType": 5126,
            "count": 5333,
            "max": [
                0.03280311077833176,
                0.0328403115272522,
                0.005283630918711424
            ],
            "min": [
                -0.03280311077833176,
                -0.0328403115272522,
                -0.005283630918711424
            ],
            "type": "VEC3"
        },
        {
            "bufferView": 0,
            "byteOffset": 62568,
            "componentType": 5123,
            "count": 960,
            "max": [
                201
            ],
            "min": [
                0
            ],
            "type": "SCALAR"
        },
        {
            "bufferView": 1,
            "byteOffset": 127992,
            "componentType": 5126,
            "count": 202,
            "max": [
                0.9999961853027344,
                0.9999999403953552,
                1.0
            ],
            "min": [
                -0.9999961853027344,
                -1.0,
                -0.9999999403953552
            ],
            "type": "VEC3"
        },
        {
            "bufferView": 1,
            "byteOffset": 130416,
            "componentType": 5126,
            "count": 202,
            "max": [
                0.017422650009393693,
                0.017422650009393693,
                0.017422650009393693
            ],
            "min": [
                -0.017422650009393693,
                -0.017422650009393693,
                -0.017422650009393693
            ],
            "type": "VEC3"
        },
        {
            "bufferView": 0,
            "byteOffset": 64488,
            "componentType": 5123,
            "count": 7440,
            "max": [
                1386
            ],
            "min": [
                0
            ],
            "type": "SCALAR"
        },
        {
            "bufferView": 1,
            "byteOffset": 132840,
            "componentType": 5126,
            "count": 1387,
            "max": [
                0.9284716844558716,
                0.9142675399780272,
                0.40511319041252139
            ],
            "min": [
                -0.9284713268280028,
                -0.9142674207687378,
                -1.0
            ],
            "type": "VEC3"
        },
        {
            "bufferView": 1,
            "byteOffset": 149484,
            "componentType": 5126,
            "count": 1387,
            "max": [
                0.00885438546538353,
                0.00980802159756422,
                0.02213500998914242
            ],
            "min": [
                -0.00885438546538353,
                -0.00980802159756422,
                0.0
            ],
            "type": "VEC3"
        },
        {
            "bufferView": 0,
            "byteOffset": 79368,
            "componentType": 5123,
            "count": 122400,
            "max": [
                21305
            ],
            "min": [
                0
            ],
            "type": "SCALAR"
        },
        {
            "bufferView": 1,
            "byteOffset": 166128,
            "componentType": 5126,
            "count": 21306,
            "max": [
                1.0,
                1.0,
                1.0
            ],
            "min": [
                -1.0,
                -1.0,
                -1.0
            ],
            "type": "VEC3"
        },
        {
            "bufferView": 1,
            "byteOffset": 421800,
            "componentType": 5126,
            "count": 21306,
            "max": [
                0.02334503084421158,
                0.02334503084421158,
                0.03315466269850731
            ],
            "min": [
                -0.02334503084421158,
                -0.02334503084421158,
                0.0
            ],
            "type": "VEC3"
        },
        {
            "bufferView": 0,
            "byteOffset": 324168,
            "componentType": 5123,
            "count": 648,
            "max": [
                162
            ],
            "min": [
                0
            ],
            "type": "SCALAR"
        },
        {
            "bufferView": 1,
            "byteOffset": 677472,
            "componentType": 5126,
            "count": 163,
            "max": [
                1.0,
                0.984807789325714,
                1.0
            ],
            "min": [
                -1.0,
                -0.984807789325714,
                -1.0
            ],
            "type": "VEC3"
        },
        {
            "bufferView": 1,
            "byteOffset": 679428,
            "componentType": 5126,
            "count": 163,
            "max": [
                0.014826500788331032,
                0.014601250179111958,
                0.019382860511541368
            ],
            "min": [
                -0.014826500788331032,
                -0.014601250179111958,
                0.0
            ],
            "type": "VEC3"
        },
        {
            "bufferView": 0,
            "byteOffset": 325464,
            "componentType": 5123,
            "count": 2880,
            "max": [
                541
            ],
            "min": [
                0
            ],
            "type": "SCALAR"
        },
        {
            "bufferView": 1,
            "byteOffset": 681384,
            "componentType": 5126,
            "count": 542,
            "max": [
                0.9999999403953552,
                1.0,
                1.0
            ],
            "min": [
                -1.0,
                -0.9999999403953552,
                -1.0
            ],
            "type": "VEC3"
        },
        {
            "bufferView": 1,
            "byteOffset": 687888,
            "componentType": 5126,
            "count": 542,
            "max": [
                0.018588170409202577,
                0.018588170409202577,
                0.018588170409202577
            ],
            "min": [
                -0.018588170409202577,
                -0.018588170409202577,
                -0.018588170409202577
            ],
            "type": "VEC3"
        },
        {
            "bufferView": 0,
            "byteOffset": 331224,
            "componentType": 5123,
            "count": 36,
            "max": [
                23
            ],
            "min": [
                0
            ],
            "type": "SCALAR"
        },
        {
            "bufferView": 1,
            "byteOffset": 694392,
            "componentType": 5126,
            "count": 24,
            "max": [
                1.0,
                1.0,
                1.0
            ],
            "min": [
                -1.0,
                -1.0,
                -1.0
            ],
            "type": "VEC3"
        },
        {
            "bufferView": 1,
            "byteOffset": 694680,
            "componentType": 5126,
            "count": 24,
            "max": [
                0.00591635936871171,
                0.014976300299167632,
                0.010376560501754284
            ],
            "min": [
                -0.00591635936871171,
                -0.014976300299167632,
                0.0
            ],
            "type": "VEC3"
        },
        {
            "bufferView": 0,
            "byteOffset": 331296,
            "componentType": 5123,
            "count": 36,
            "max": [
                23
            ],
            "min": [
                0
            ],
            "type": "SCALAR"
        },
        {
            "bufferView": 1,
            "byteOffset": 694968,
            "componentType": 5126,
            "count": 24,
            "max": [
                1.0,
                1.0,
                1.0
            ],
            "min": [
                -1.0,
                -1.0,
                -1.0
            ],
            "type": "VEC3"
        },
        {
            "bufferView": 1,
            "byteOffset": 695256,
            "componentType": 5126,
            "count": 24,
            "max": [
                0.010836000554263592,
                0.01920357905328274,
                0.01779592037200928
            ],
            "min": [
                -0.010836000554263592,
                -0.01920357905328274,
                0.0
            ],
            "type": "VEC3"
        }
    ],
    "materials": [
        {
            "pbrMetallicRoughness": {
                "baseColorFactor": [
                    0.0313725508749485,
                    0.2392157018184662,
                    0.5411764979362488,
                    1.0
                ],
                "metallicFactor": 0.0
            },
            "name": "ColorEffectR8G61B138"
        },
        {
            "pbrMetallicRoughness": {
                "baseColorFactor": [
                    0.8392156958580017,
                    0.8980392217636108,
                    0.6509804129600525,
                    1.0
                ],
                "metallicFactor": 0.0
            },
            "name": "ColorEffectR214G229B166"
        },
        {
            "pbrMetallicRoughness": {
                "baseColorFactor": [
                    0.0313725508749485,
                    0.2392157018184662,
                    0.5411764979362488,
                    1.0
                ],
                "metallicFactor": 0.0
            },
            "name": "ColorEffectR8G61B138"
        },
        {
            "pbrMetallicRoughness": {
                "baseColorFactor": [
                    0.882352888584137,
                    0.5607842803001404,
                    0.34117650985717776,
                    1.0
                ],
                "metallicFactor": 0.0
            },
            "name": "ColorEffectR225G143B87"
        },
        {
            "pbrMetallicRoughness": {
                "baseColorFactor": [
                    0.023529410362243657,
                    0.529411792755127,
                    0.4431373178958893,
                    1.0
                ],
                "metallicFactor": 0.0
            },
            "name": "ColorEffectR6G135B113"
        },
        {
            "pbrMetallicRoughness": {
                "baseColorFactor": [
                    0.5490196347236633,
                    0.3450979888439179,
                    0.882352888584137,
                    1.0
                ],
                "metallicFactor": 0.0
            },
            "name": "ColorEffectR140G88B225"
        },
        {
            "pbrMetallicRoughness": {
                "baseColorFactor": [
                    0.8941177129745483,
                    0.8392156958580017,
                    0.6000000238418579,
                    1.0
                ],
                "metallicFactor": 0.0
            },
            "name": "ColorEffectR228G214B153"
        },
        {
            "pbrMetallicRoughness": {
                "baseColorFactor": [
                    0.7686275243759155,
                    0.3450979888439179,
                    0.882352888584137,
                    1.0
                ],
                "metallicFactor": 0.0
            },
            "name": "ColorEffectR196G88B225"
        }
    ],
    "bufferViews": [
        {
            "buffer": 0,
            "byteOffset": 695544,
            "byteLength": 331368,
            "target": 34963
        },
        {
            "buffer": 0,
            "byteOffset": 0,
            "byteLength": 695544,
            "byteStride": 12,
            "target": 34962
        }
    ],
    "buffers": [
        {
            "byteLength": 1026912,
            "uri": "data:application/octet-stream;base64,"
        }
    ]
}
